<?xml version="1.0" standalone="no"?>
<!DOCTYPE svg PUBLIC "-//W3C//DTD SVG 20010904//EN"
 "http://www.w3.org/TR/2001/REC-SVG-20010904/DTD/svg10.dtd">
<svg version="1.0" xmlns="http://www.w3.org/2000/svg"
 width="500.000000pt" height="500.000000pt" viewBox="0 0 500.000000 500.000000"
 preserveAspectRatio="xMidYMid meet">

<g transform="translate(0.000000,500.000000) scale(0.100000,-0.100000)"
fill="#000000" stroke="none">
<path d="M1520 2385 l0 -1315 175 0 175 0 0 1315 0 1315 -175 0 -175 0 0
-1315z"/>
<path d="M2100 3210 l0 -490 235 0 235 0 0 160 0 160 220 0 220 0 0 -655 0
-655 -220 0 -220 0 0 160 0 160 -235 0 -235 0 0 -490 0 -490 468 0 467 0 -3
325 -3 325 226 0 225 0 0 660 0 660 -219 0 c-190 0 -220 2 -225 16 -3 9 -6
157 -6 330 l0 314 -465 0 -465 0 0 -490z"/>
</g>
</svg>
